<svg xmlns="http://www.w3.org/2000/svg" width="980" height="658" viewBox="0 0 980 658" font-family="-apple-system,Segoe UI,sans-serif">
<rect width="980" height="658" fill="#fafafa"/>
<text x="490.0" y="32" text-anchor="middle" font-size="22" font-weight="700" fill="#111">REST stack throughput @ same PG (10k seed products)</text>
<text x="490.0" y="56" text-anchor="middle" font-size="13" fill="#555">Same hardware · same PostgreSQL · same /products endpoint · wrk -t8 -c64 -d10s</text>
<text x="226" y="114.0" text-anchor="end" font-size="15" font-weight="600" fill="#222">SpidoNG (cache on)</text>
<rect x="240" y="80" width="540.0" height="56" rx="6" fill="#0ea5e9" />
<text x="254" y="104.0" font-size="20" font-weight="700" fill="white">103,988 req/s</text>
<text x="254" y="126.0" font-size="11" fill="rgba(255,255,255,0.85)">p50 352 µs · p99 4.5 ms</text>
<text x="226" y="188.0" text-anchor="end" font-size="15" font-weight="600" fill="#222">SpidoNG (cache off)</text>
<rect x="240" y="154" width="416.5" height="56" rx="6" fill="#3b82f6" />
<text x="254" y="178.0" font-size="20" font-weight="700" fill="white">80,207 req/s</text>
<text x="254" y="200.0" font-size="11" fill="rgba(255,255,255,0.85)">p50 478 µs · p99 4.9 ms</text>
<text x="226" y="262.0" text-anchor="end" font-size="15" font-weight="600" fill="#222">Actix + tokio-postgres (Rust)</text>
<rect x="240" y="228" width="306.0" height="56" rx="6" fill="#dc2626" />
<text x="254" y="252.0" font-size="20" font-weight="700" fill="white">58,930 req/s</text>
<text x="254" y="274.0" font-size="11" fill="rgba(255,255,255,0.85)">p50 1.0 ms · p99 2.4 ms</text>
<text x="226" y="336.0" text-anchor="end" font-size="15" font-weight="600" fill="#222">Go + chi + pgx</text>
<rect x="240" y="302" width="244.5" height="56" rx="6" fill="#10b981" />
<text x="254" y="326.0" font-size="20" font-weight="700" fill="white">47,077 req/s</text>
<text x="254" y="348.0" font-size="11" fill="rgba(255,255,255,0.85)">p50 1.1 ms · p99 5.4 ms</text>
<text x="226" y="410.0" text-anchor="end" font-size="15" font-weight="600" fill="#222">PostgREST</text>
<rect x="240" y="376" width="49.2" height="56" rx="6" fill="#f59e0b" />
<text x="301.15888441838285" y="400.0" font-size="16" font-weight="700" fill="#222">9,467 req/s</text>
<text x="301.15888441838285" y="420.0" font-size="11" fill="#555">p50 6.2 ms · p99 31.5 ms</text>
<text x="226" y="484.0" text-anchor="end" font-size="15" font-weight="600" fill="#222">Express + pg (Node)</text>
<rect x="240" y="450" width="13.3" height="56" rx="6" fill="#84cc16" />
<text x="265.2912277246556" y="474.0" font-size="16" font-weight="700" fill="#222">2,559 req/s</text>
<text x="265.2912277246556" y="494.0" font-size="11" fill="#555">p50 24.9 ms · p99 37.3 ms</text>
<text x="226" y="558.0" text-anchor="end" font-size="15" font-weight="600" fill="#222">FastAPI + asyncpg (Python)</text>
<rect x="240" y="524" width="6.7" height="56" rx="6" fill="#a855f7" />
<text x="258.7034889597071" y="548.0" font-size="16" font-weight="700" fill="#222">1,291 req/s</text>
<text x="258.7034889597071" y="568.0" font-size="11" fill="#555">p50 48.4 ms · p99 67.3 ms</text>
<text x="490.0" y="634" text-anchor="middle" font-size="11" fill="#666">Higher bar = better. RPS = requests/sec sustained over 10s. Latency = end-to-end inside wrk.</text>
</svg>